<?xml version="1.0" standalone="yes"?>

<svg version="1.1" viewBox="0.0 0.0 400.0 400.0" fill="none" stroke="none" stroke-linecap="square" stroke-miterlimit="10" xmlns="http://www.w3.org/2000/svg" xmlns:xlink="http://www.w3.org/1999/xlink"><clipPath id="p.0"><path d="m0 0l400.0 0l0 400.0l-400.0 0l0 -400.0z" clip-rule="nonzero"></path></clipPath><g clip-path="url(#p.0)"><path fill="#000000" fill-opacity="0.0" d="m0 0l400.0 0l0 400.0l-400.0 0z" fill-rule="nonzero"></path><path fill="#249357" d="m353.6044 14.940362l29.625763 29.62577l-28.930145 28.930145l-29.625763 -29.625767z" fill-rule="nonzero"></path><path fill="#249357" d="m85.76289 289.83066l299.46527 0l0 37.71817l-299.46527 0z" fill-rule="nonzero"></path><path fill="#249357" d="m14.851709 364.3163l69.03662 -69.03662l20.737267 20.737244l-69.03662 69.03662z" fill-rule="nonzero"></path><path fill="#31bb68" d="m14.948569 14.940138l339.8423 0l0 283.27277l-339.8423 0z" fill-rule="nonzero"></path><path fill="#31bb68" d="m14.948569 277.5761l0 87.68701l92.61048 -87.68701z" fill-rule="nonzero"></path><path fill="#249357" d="m354.79086 44.2722l30.437317 0l0 283.27277l-30.437317 0z" fill-rule="nonzero"></path><path fill="#ffffff" d="m219.02539 207.11217l0 0c0 -25.573685 20.731567 -46.305237 46.305237 -46.305237l0 0c12.280914 0 24.058838 4.8785706 32.742767 13.562485c8.683899 8.683914 13.5624695 20.461838 13.5624695 32.742752l0 0c0 25.57367 -20.731537 46.305237 -46.305237 46.305237l0 0c-25.57367 0 -46.305237 -20.731567 -46.305237 -46.305237z" fill-rule="nonzero"></path><path fill="#249357" d="m354.79086 44.2722l0 -29.332064l30.437317 29.332064z" fill-rule="nonzero"></path></g></svg>

