<?xml version="1.0" standalone="yes"?>

<svg version="1.1" viewBox="0.0 0.0 800.0 800.0" fill="none" stroke="none" stroke-linecap="square" stroke-miterlimit="10" xmlns="http://www.w3.org/2000/svg" xmlns:xlink="http://www.w3.org/1999/xlink"><clipPath id="p.0"><path d="m0 0l800.0 0l0 800.0l-800.0 0l0 -800.0z" clip-rule="nonzero"></path></clipPath><g clip-path="url(#p.0)"><path fill="#000000" fill-opacity="0.0" d="m0 0l800.0 0l0 800.0l-800.0 0z" fill-rule="nonzero"></path><path fill="#ffffff" d="m-1.7874016 -0.08661418l800.0 0l0 800.0l-800.0 0z" fill-rule="nonzero"></path><path fill="#249357" d="m707.06635 29.876131l59.239502 59.23947l-57.84851 57.84851l-59.239502 -59.23947z" fill-rule="nonzero"></path><path fill="#000000" d="m171.4925 579.5447l598.8086 0l0 75.42102l-598.8086 0z" fill-rule="nonzero"></path><path fill="#000000" d="m29.69902 728.48566l138.04512 -138.0451l41.46608 41.466064l-138.04512 138.0451z" fill-rule="nonzero"></path><path fill="#434343" d="m29.892698 29.875683l679.54614 0l0 566.4301l-679.54614 0z" fill-rule="nonzero"></path><path fill="#434343" d="m29.892698 555.0406l0 175.33832l185.18323 -175.33832z" fill-rule="nonzero"></path><path fill="#000000" d="m709.4388 88.527855l60.862244 0l0 566.4301l-60.862244 0z" fill-rule="nonzero"></path><path fill="#ffffff" d="m437.9632 414.14145l0 0c0 -51.136932 41.45468 -92.59161 92.59161 -92.59161l0 0c24.556824 0 48.10785 9.755157 65.47217 27.119446c17.364319 17.364288 27.119446 40.915344 27.119446 65.47217l0 0c0 51.136932 -41.45465 92.59161 -92.59161 92.59161l0 0c-51.136932 0 -92.59161 -41.45468 -92.59161 -92.59161z" fill-rule="nonzero"></path><path fill="#000000" d="m709.4388 88.527855l0 -58.652172l60.862244 58.652172z" fill-rule="nonzero"></path></g></svg>

